<mxfile host="Electron" agent="Mozilla/5.0 (Windows NT 10.0; Win64; x64) AppleWebKit/537.36 (KHTML, like Gecko) draw.io/24.7.8 Chrome/128.0.6613.36 Electron/32.0.1 Safari/537.36" version="24.7.8">
  <diagram name="PÃ¡gina-1" id="_0mI4XlrmBaAmceCMrsX">
    <mxGraphModel dx="1100" dy="665" grid="1" gridSize="10" guides="1" tooltips="1" connect="1" arrows="1" fold="1" page="1" pageScale="1" pageWidth="1169" pageHeight="827" math="0" shadow="0">
      <root>
        <mxCell id="0" />
        <mxCell id="1" parent="0" />
        <mxCell id="qkB0tayrANCVQn4P_8Va-26" style="rounded=0;orthogonalLoop=1;jettySize=auto;html=1;exitX=1;exitY=0;exitDx=0;exitDy=0;entryX=0;entryY=1;entryDx=0;entryDy=0;endArrow=none;endFill=0;" parent="1" source="qkB0tayrANCVQn4P_8Va-1" target="qkB0tayrANCVQn4P_8Va-24" edge="1">
          <mxGeometry relative="1" as="geometry" />
        </mxCell>
        <mxCell id="qkB0tayrANCVQn4P_8Va-1" value="USUARIOS" style="whiteSpace=wrap;html=1;align=center;" parent="1" vertex="1">
          <mxGeometry x="210" y="233" width="100" height="40" as="geometry" />
        </mxCell>
        <mxCell id="qkB0tayrANCVQn4P_8Va-3" style="rounded=0;orthogonalLoop=1;jettySize=auto;html=1;exitX=1;exitY=0.5;exitDx=0;exitDy=0;entryX=0;entryY=0;entryDx=0;entryDy=0;strokeColor=default;curved=0;endArrow=none;endFill=0;" parent="1" source="qkB0tayrANCVQn4P_8Va-2" target="qkB0tayrANCVQn4P_8Va-1" edge="1">
          <mxGeometry relative="1" as="geometry" />
        </mxCell>
        <mxCell id="qkB0tayrANCVQn4P_8Va-2" value="Id" style="ellipse;whiteSpace=wrap;html=1;align=center;fontStyle=4;" parent="1" vertex="1">
          <mxGeometry x="50" y="133" width="100" height="40" as="geometry" />
        </mxCell>
        <mxCell id="qkB0tayrANCVQn4P_8Va-5" style="rounded=0;orthogonalLoop=1;jettySize=auto;html=1;exitX=1;exitY=0.5;exitDx=0;exitDy=0;entryX=0;entryY=0.5;entryDx=0;entryDy=0;endArrow=none;endFill=0;" parent="1" source="qkB0tayrANCVQn4P_8Va-4" target="qkB0tayrANCVQn4P_8Va-1" edge="1">
          <mxGeometry relative="1" as="geometry" />
        </mxCell>
        <mxCell id="qkB0tayrANCVQn4P_8Va-4" value="nombre" style="ellipse;whiteSpace=wrap;html=1;align=center;fontStyle=0;strokeColor=default;" parent="1" vertex="1">
          <mxGeometry x="50" y="233" width="100" height="40" as="geometry" />
        </mxCell>
        <mxCell id="qkB0tayrANCVQn4P_8Va-6" value="email" style="ellipse;whiteSpace=wrap;html=1;align=center;fontStyle=0;strokeColor=default;" parent="1" vertex="1">
          <mxGeometry x="50" y="183" width="100" height="40" as="geometry" />
        </mxCell>
        <mxCell id="qkB0tayrANCVQn4P_8Va-7" style="rounded=0;orthogonalLoop=1;jettySize=auto;html=1;exitX=1;exitY=0.5;exitDx=0;exitDy=0;entryX=0;entryY=0.25;entryDx=0;entryDy=0;strokeColor=default;curved=0;endArrow=none;endFill=0;" parent="1" source="qkB0tayrANCVQn4P_8Va-6" target="qkB0tayrANCVQn4P_8Va-1" edge="1">
          <mxGeometry relative="1" as="geometry">
            <mxPoint x="160" y="163" as="sourcePoint" />
            <mxPoint x="220" y="243" as="targetPoint" />
          </mxGeometry>
        </mxCell>
        <mxCell id="qkB0tayrANCVQn4P_8Va-8" value="estado" style="ellipse;whiteSpace=wrap;html=1;align=center;fontStyle=0;strokeColor=default;" parent="1" vertex="1">
          <mxGeometry x="50" y="283" width="100" height="40" as="geometry" />
        </mxCell>
        <mxCell id="qkB0tayrANCVQn4P_8Va-9" style="rounded=0;orthogonalLoop=1;jettySize=auto;html=1;exitX=1;exitY=0.5;exitDx=0;exitDy=0;entryX=0;entryY=0.75;entryDx=0;entryDy=0;endArrow=none;endFill=0;" parent="1" source="qkB0tayrANCVQn4P_8Va-8" target="qkB0tayrANCVQn4P_8Va-1" edge="1">
          <mxGeometry relative="1" as="geometry">
            <mxPoint x="160" y="263" as="sourcePoint" />
            <mxPoint x="220" y="263" as="targetPoint" />
          </mxGeometry>
        </mxCell>
        <mxCell id="qkB0tayrANCVQn4P_8Va-11" style="rounded=0;orthogonalLoop=1;jettySize=auto;html=1;exitX=1;exitY=0.5;exitDx=0;exitDy=0;entryX=0;entryY=1;entryDx=0;entryDy=0;endArrow=none;endFill=0;" parent="1" source="qkB0tayrANCVQn4P_8Va-10" target="qkB0tayrANCVQn4P_8Va-1" edge="1">
          <mxGeometry relative="1" as="geometry" />
        </mxCell>
        <mxCell id="qkB0tayrANCVQn4P_8Va-10" value="numero" style="ellipse;shape=doubleEllipse;margin=3;whiteSpace=wrap;html=1;align=center;" parent="1" vertex="1">
          <mxGeometry x="50" y="333" width="100" height="40" as="geometry" />
        </mxCell>
        <mxCell id="qkB0tayrANCVQn4P_8Va-13" style="rounded=0;orthogonalLoop=1;jettySize=auto;html=1;exitX=0.5;exitY=1;exitDx=0;exitDy=0;entryX=0.25;entryY=0;entryDx=0;entryDy=0;endArrow=none;endFill=0;" parent="1" source="qkB0tayrANCVQn4P_8Va-12" target="qkB0tayrANCVQn4P_8Va-1" edge="1">
          <mxGeometry relative="1" as="geometry" />
        </mxCell>
        <mxCell id="qkB0tayrANCVQn4P_8Va-12" value="direccion" style="ellipse;whiteSpace=wrap;html=1;align=center;" parent="1" vertex="1">
          <mxGeometry x="150" y="93" width="100" height="40" as="geometry" />
        </mxCell>
        <mxCell id="qkB0tayrANCVQn4P_8Va-15" style="rounded=0;orthogonalLoop=1;jettySize=auto;html=1;exitX=0.5;exitY=0;exitDx=0;exitDy=0;entryX=0.25;entryY=1;entryDx=0;entryDy=0;endArrow=none;endFill=0;" parent="1" source="qkB0tayrANCVQn4P_8Va-14" target="qkB0tayrANCVQn4P_8Va-1" edge="1">
          <mxGeometry relative="1" as="geometry" />
        </mxCell>
        <mxCell id="qkB0tayrANCVQn4P_8Va-14" value="fechacreacion" style="ellipse;whiteSpace=wrap;html=1;align=center;" parent="1" vertex="1">
          <mxGeometry x="150" y="373" width="100" height="40" as="geometry" />
        </mxCell>
        <mxCell id="qkB0tayrANCVQn4P_8Va-16" value="ROLES" style="whiteSpace=wrap;html=1;align=center;" parent="1" vertex="1">
          <mxGeometry x="480" y="93" width="100" height="40" as="geometry" />
        </mxCell>
        <mxCell id="qkB0tayrANCVQn4P_8Va-19" style="rounded=0;orthogonalLoop=1;jettySize=auto;html=1;exitX=0.5;exitY=1;exitDx=0;exitDy=0;entryX=0.5;entryY=0;entryDx=0;entryDy=0;endArrow=none;endFill=0;" parent="1" source="qkB0tayrANCVQn4P_8Va-18" target="qkB0tayrANCVQn4P_8Va-16" edge="1">
          <mxGeometry relative="1" as="geometry" />
        </mxCell>
        <mxCell id="qkB0tayrANCVQn4P_8Va-18" value="Id" style="ellipse;whiteSpace=wrap;html=1;align=center;fontStyle=4;" parent="1" vertex="1">
          <mxGeometry x="480" y="3" width="100" height="40" as="geometry" />
        </mxCell>
        <mxCell id="qkB0tayrANCVQn4P_8Va-21" style="rounded=0;orthogonalLoop=1;jettySize=auto;html=1;exitX=1;exitY=1;exitDx=0;exitDy=0;entryX=0.25;entryY=0;entryDx=0;entryDy=0;endArrow=none;endFill=0;" parent="1" source="qkB0tayrANCVQn4P_8Va-20" target="qkB0tayrANCVQn4P_8Va-16" edge="1">
          <mxGeometry relative="1" as="geometry" />
        </mxCell>
        <mxCell id="qkB0tayrANCVQn4P_8Va-20" value="nombre" style="ellipse;whiteSpace=wrap;html=1;align=center;" parent="1" vertex="1">
          <mxGeometry x="370" y="43" width="100" height="40" as="geometry" />
        </mxCell>
        <mxCell id="qkB0tayrANCVQn4P_8Va-23" style="rounded=0;orthogonalLoop=1;jettySize=auto;html=1;exitX=0;exitY=0.5;exitDx=0;exitDy=0;entryX=0.75;entryY=0;entryDx=0;entryDy=0;endArrow=none;endFill=0;" parent="1" source="qkB0tayrANCVQn4P_8Va-22" target="qkB0tayrANCVQn4P_8Va-16" edge="1">
          <mxGeometry relative="1" as="geometry">
            <mxPoint x="620.6446609406726" y="77.14213562373106" as="sourcePoint" />
          </mxGeometry>
        </mxCell>
        <mxCell id="qkB0tayrANCVQn4P_8Va-22" value="descripcion" style="ellipse;whiteSpace=wrap;html=1;align=center;" parent="1" vertex="1">
          <mxGeometry x="620" y="53" width="100" height="40" as="geometry" />
        </mxCell>
        <mxCell id="qkB0tayrANCVQn4P_8Va-25" style="rounded=0;orthogonalLoop=1;jettySize=auto;html=1;exitX=1;exitY=0;exitDx=0;exitDy=0;entryX=0;entryY=1;entryDx=0;entryDy=0;" parent="1" source="qkB0tayrANCVQn4P_8Va-24" target="qkB0tayrANCVQn4P_8Va-16" edge="1">
          <mxGeometry relative="1" as="geometry">
            <mxPoint x="434" y="173" as="sourcePoint" />
          </mxGeometry>
        </mxCell>
        <mxCell id="qkB0tayrANCVQn4P_8Va-24" value="Tener" style="shape=rhombus;perimeter=rhombusPerimeter;whiteSpace=wrap;html=1;align=center;" parent="1" vertex="1">
          <mxGeometry x="334" y="163" width="120" height="60" as="geometry" />
        </mxCell>
        <mxCell id="5nqzWEpYTUndB_2lmOFv-1" value="CATEGORIA" style="whiteSpace=wrap;html=1;align=center;" vertex="1" parent="1">
          <mxGeometry x="230" y="530" width="100" height="40" as="geometry" />
        </mxCell>
        <mxCell id="5nqzWEpYTUndB_2lmOFv-5" style="rounded=0;orthogonalLoop=1;jettySize=auto;html=1;exitX=0.5;exitY=1;exitDx=0;exitDy=0;entryX=0;entryY=0;entryDx=0;entryDy=0;endArrow=none;endFill=0;" edge="1" parent="1" source="5nqzWEpYTUndB_2lmOFv-2" target="5nqzWEpYTUndB_2lmOFv-1">
          <mxGeometry relative="1" as="geometry" />
        </mxCell>
        <mxCell id="5nqzWEpYTUndB_2lmOFv-2" value="nombre" style="ellipse;whiteSpace=wrap;html=1;align=center;" vertex="1" parent="1">
          <mxGeometry x="150" y="440" width="100" height="40" as="geometry" />
        </mxCell>
        <mxCell id="5nqzWEpYTUndB_2lmOFv-7" style="rounded=0;orthogonalLoop=1;jettySize=auto;html=1;exitX=1;exitY=0.5;exitDx=0;exitDy=0;entryX=0;entryY=0.5;entryDx=0;entryDy=0;endArrow=none;endFill=0;" edge="1" parent="1" source="5nqzWEpYTUndB_2lmOFv-3" target="5nqzWEpYTUndB_2lmOFv-1">
          <mxGeometry relative="1" as="geometry" />
        </mxCell>
        <mxCell id="5nqzWEpYTUndB_2lmOFv-3" value="Id" style="ellipse;whiteSpace=wrap;html=1;align=center;fontStyle=4;" vertex="1" parent="1">
          <mxGeometry x="80" y="530" width="100" height="40" as="geometry" />
        </mxCell>
        <mxCell id="5nqzWEpYTUndB_2lmOFv-6" style="rounded=0;orthogonalLoop=1;jettySize=auto;html=1;exitX=0.5;exitY=0;exitDx=0;exitDy=0;entryX=0;entryY=1;entryDx=0;entryDy=0;endArrow=none;endFill=0;" edge="1" parent="1" source="5nqzWEpYTUndB_2lmOFv-4" target="5nqzWEpYTUndB_2lmOFv-1">
          <mxGeometry relative="1" as="geometry" />
        </mxCell>
        <mxCell id="5nqzWEpYTUndB_2lmOFv-4" value="descripcion" style="ellipse;whiteSpace=wrap;html=1;align=center;" vertex="1" parent="1">
          <mxGeometry x="150" y="600" width="100" height="40" as="geometry" />
        </mxCell>
        <mxCell id="5nqzWEpYTUndB_2lmOFv-8" value="ELEMENTOS" style="whiteSpace=wrap;html=1;align=center;" vertex="1" parent="1">
          <mxGeometry x="440" y="610" width="100" height="40" as="geometry" />
        </mxCell>
        <mxCell id="5nqzWEpYTUndB_2lmOFv-10" style="rounded=0;orthogonalLoop=1;jettySize=auto;html=1;exitX=1;exitY=0.5;exitDx=0;exitDy=0;entryX=0;entryY=0.75;entryDx=0;entryDy=0;endArrow=none;endFill=0;" edge="1" parent="1" source="5nqzWEpYTUndB_2lmOFv-9" target="5nqzWEpYTUndB_2lmOFv-8">
          <mxGeometry relative="1" as="geometry" />
        </mxCell>
        <mxCell id="5nqzWEpYTUndB_2lmOFv-9" value="Serial" style="ellipse;whiteSpace=wrap;html=1;align=center;fontStyle=4;" vertex="1" parent="1">
          <mxGeometry x="310" y="630" width="100" height="40" as="geometry" />
        </mxCell>
        <mxCell id="5nqzWEpYTUndB_2lmOFv-17" style="rounded=0;orthogonalLoop=1;jettySize=auto;html=1;exitX=1;exitY=0.5;exitDx=0;exitDy=0;entryX=0;entryY=1;entryDx=0;entryDy=0;endArrow=none;endFill=0;" edge="1" parent="1" source="5nqzWEpYTUndB_2lmOFv-11" target="5nqzWEpYTUndB_2lmOFv-8">
          <mxGeometry relative="1" as="geometry" />
        </mxCell>
        <mxCell id="5nqzWEpYTUndB_2lmOFv-11" value="nombre" style="ellipse;whiteSpace=wrap;html=1;align=center;" vertex="1" parent="1">
          <mxGeometry x="310" y="690" width="100" height="40" as="geometry" />
        </mxCell>
        <mxCell id="5nqzWEpYTUndB_2lmOFv-21" style="rounded=0;orthogonalLoop=1;jettySize=auto;html=1;exitX=0;exitY=0.5;exitDx=0;exitDy=0;entryX=1;entryY=1;entryDx=0;entryDy=0;endArrow=none;endFill=0;" edge="1" parent="1" source="5nqzWEpYTUndB_2lmOFv-12" target="5nqzWEpYTUndB_2lmOFv-8">
          <mxGeometry relative="1" as="geometry" />
        </mxCell>
        <mxCell id="5nqzWEpYTUndB_2lmOFv-12" value="fechaadquisicion" style="ellipse;whiteSpace=wrap;html=1;align=center;" vertex="1" parent="1">
          <mxGeometry x="570" y="690" width="100" height="40" as="geometry" />
        </mxCell>
        <mxCell id="5nqzWEpYTUndB_2lmOFv-19" style="edgeStyle=orthogonalEdgeStyle;rounded=0;orthogonalLoop=1;jettySize=auto;html=1;exitX=0.5;exitY=0;exitDx=0;exitDy=0;entryX=0.5;entryY=1;entryDx=0;entryDy=0;endArrow=none;endFill=0;" edge="1" parent="1" source="5nqzWEpYTUndB_2lmOFv-13" target="5nqzWEpYTUndB_2lmOFv-8">
          <mxGeometry relative="1" as="geometry" />
        </mxCell>
        <mxCell id="5nqzWEpYTUndB_2lmOFv-13" value="descripcion" style="ellipse;whiteSpace=wrap;html=1;align=center;" vertex="1" parent="1">
          <mxGeometry x="440" y="770" width="100" height="40" as="geometry" />
        </mxCell>
        <mxCell id="5nqzWEpYTUndB_2lmOFv-18" style="rounded=0;orthogonalLoop=1;jettySize=auto;html=1;exitX=1;exitY=0.5;exitDx=0;exitDy=0;entryX=0.25;entryY=1;entryDx=0;entryDy=0;endArrow=none;endFill=0;" edge="1" parent="1" source="5nqzWEpYTUndB_2lmOFv-14" target="5nqzWEpYTUndB_2lmOFv-8">
          <mxGeometry relative="1" as="geometry" />
        </mxCell>
        <mxCell id="5nqzWEpYTUndB_2lmOFv-14" value="estado" style="ellipse;whiteSpace=wrap;html=1;align=center;" vertex="1" parent="1">
          <mxGeometry x="310" y="750" width="100" height="40" as="geometry" />
        </mxCell>
        <mxCell id="5nqzWEpYTUndB_2lmOFv-20" style="rounded=0;orthogonalLoop=1;jettySize=auto;html=1;exitX=0;exitY=0.5;exitDx=0;exitDy=0;entryX=0.75;entryY=1;entryDx=0;entryDy=0;endArrow=none;endFill=0;" edge="1" parent="1" source="5nqzWEpYTUndB_2lmOFv-15" target="5nqzWEpYTUndB_2lmOFv-8">
          <mxGeometry relative="1" as="geometry" />
        </mxCell>
        <mxCell id="5nqzWEpYTUndB_2lmOFv-15" value="cantidad" style="ellipse;whiteSpace=wrap;html=1;align=center;" vertex="1" parent="1">
          <mxGeometry x="570" y="750" width="100" height="40" as="geometry" />
        </mxCell>
        <mxCell id="5nqzWEpYTUndB_2lmOFv-22" style="rounded=0;orthogonalLoop=1;jettySize=auto;html=1;exitX=0;exitY=0.5;exitDx=0;exitDy=0;entryX=1;entryY=0.75;entryDx=0;entryDy=0;endArrow=none;endFill=0;" edge="1" parent="1" source="5nqzWEpYTUndB_2lmOFv-16" target="5nqzWEpYTUndB_2lmOFv-8">
          <mxGeometry relative="1" as="geometry" />
        </mxCell>
        <mxCell id="5nqzWEpYTUndB_2lmOFv-16" value="fecha" style="ellipse;whiteSpace=wrap;html=1;align=center;" vertex="1" parent="1">
          <mxGeometry x="570" y="630" width="100" height="40" as="geometry" />
        </mxCell>
        <mxCell id="5nqzWEpYTUndB_2lmOFv-24" style="edgeStyle=orthogonalEdgeStyle;rounded=0;orthogonalLoop=1;jettySize=auto;html=1;exitX=1;exitY=0.5;exitDx=0;exitDy=0;entryX=0.5;entryY=0;entryDx=0;entryDy=0;endArrow=none;endFill=0;" edge="1" parent="1" source="5nqzWEpYTUndB_2lmOFv-23" target="5nqzWEpYTUndB_2lmOFv-8">
          <mxGeometry relative="1" as="geometry">
            <Array as="points">
              <mxPoint x="490" y="580" />
              <mxPoint x="490" y="580" />
            </Array>
          </mxGeometry>
        </mxCell>
        <mxCell id="5nqzWEpYTUndB_2lmOFv-25" style="edgeStyle=orthogonalEdgeStyle;rounded=0;orthogonalLoop=1;jettySize=auto;html=1;exitX=0;exitY=0.5;exitDx=0;exitDy=0;entryX=1;entryY=0.5;entryDx=0;entryDy=0;endArrow=classic;endFill=1;" edge="1" parent="1" source="5nqzWEpYTUndB_2lmOFv-23" target="5nqzWEpYTUndB_2lmOFv-1">
          <mxGeometry relative="1" as="geometry" />
        </mxCell>
        <mxCell id="5nqzWEpYTUndB_2lmOFv-23" value="Tener" style="shape=rhombus;perimeter=rhombusPerimeter;whiteSpace=wrap;html=1;align=center;" vertex="1" parent="1">
          <mxGeometry x="360" y="520" width="120" height="60" as="geometry" />
        </mxCell>
        <mxCell id="5nqzWEpYTUndB_2lmOFv-30" style="rounded=0;orthogonalLoop=1;jettySize=auto;html=1;exitX=0;exitY=0.5;exitDx=0;exitDy=0;entryX=1;entryY=0.5;entryDx=0;entryDy=0;endArrow=none;endFill=0;" edge="1" parent="1" source="5nqzWEpYTUndB_2lmOFv-28" target="5nqzWEpYTUndB_2lmOFv-32">
          <mxGeometry relative="1" as="geometry">
            <mxPoint x="710" y="390" as="targetPoint" />
          </mxGeometry>
        </mxCell>
        <mxCell id="5nqzWEpYTUndB_2lmOFv-28" value="fechaingreso" style="ellipse;whiteSpace=wrap;html=1;align=center;" vertex="1" parent="1">
          <mxGeometry x="760" y="370" width="100" height="40" as="geometry" />
        </mxCell>
        <mxCell id="5nqzWEpYTUndB_2lmOFv-32" value="REGISTROING" style="shape=ext;margin=3;double=1;whiteSpace=wrap;html=1;align=center;" vertex="1" parent="1">
          <mxGeometry x="610" y="370" width="100" height="40" as="geometry" />
        </mxCell>
        <mxCell id="5nqzWEpYTUndB_2lmOFv-34" style="rounded=0;orthogonalLoop=1;jettySize=auto;html=1;exitX=0.5;exitY=0;exitDx=0;exitDy=0;entryX=0.5;entryY=1;entryDx=0;entryDy=0;endArrow=none;endFill=0;" edge="1" parent="1" source="5nqzWEpYTUndB_2lmOFv-33" target="5nqzWEpYTUndB_2lmOFv-32">
          <mxGeometry relative="1" as="geometry" />
        </mxCell>
        <mxCell id="5nqzWEpYTUndB_2lmOFv-33" value="&lt;span style=&quot;border-bottom: 1px dotted&quot;&gt;id&lt;/span&gt;" style="ellipse;whiteSpace=wrap;html=1;align=center;" vertex="1" parent="1">
          <mxGeometry x="610" y="440" width="100" height="40" as="geometry" />
        </mxCell>
        <mxCell id="5nqzWEpYTUndB_2lmOFv-36" style="rounded=0;orthogonalLoop=1;jettySize=auto;html=1;exitX=0;exitY=0.5;exitDx=0;exitDy=0;entryX=1;entryY=1;entryDx=0;entryDy=0;" edge="1" parent="1" source="5nqzWEpYTUndB_2lmOFv-35" target="qkB0tayrANCVQn4P_8Va-1">
          <mxGeometry relative="1" as="geometry" />
        </mxCell>
        <mxCell id="5nqzWEpYTUndB_2lmOFv-37" style="rounded=0;orthogonalLoop=1;jettySize=auto;html=1;exitX=1;exitY=0.5;exitDx=0;exitDy=0;entryX=0;entryY=0.5;entryDx=0;entryDy=0;shape=link;" edge="1" parent="1" source="5nqzWEpYTUndB_2lmOFv-35" target="5nqzWEpYTUndB_2lmOFv-32">
          <mxGeometry relative="1" as="geometry" />
        </mxCell>
        <mxCell id="5nqzWEpYTUndB_2lmOFv-35" value="Usuarios-Registroing" style="shape=rhombus;double=1;perimeter=rhombusPerimeter;whiteSpace=wrap;html=1;align=center;" vertex="1" parent="1">
          <mxGeometry x="380" y="290" width="140" height="90" as="geometry" />
        </mxCell>
        <mxCell id="5nqzWEpYTUndB_2lmOFv-44" style="rounded=0;orthogonalLoop=1;jettySize=auto;html=1;exitX=1;exitY=1;exitDx=0;exitDy=0;entryX=0;entryY=0.5;entryDx=0;entryDy=0;endArrow=none;endFill=0;" edge="1" parent="1" source="5nqzWEpYTUndB_2lmOFv-38" target="5nqzWEpYTUndB_2lmOFv-43">
          <mxGeometry relative="1" as="geometry" />
        </mxCell>
        <mxCell id="5nqzWEpYTUndB_2lmOFv-38" value="CREDENCIALES" style="shape=ext;margin=3;double=1;whiteSpace=wrap;html=1;align=center;" vertex="1" parent="1">
          <mxGeometry x="835" y="150" width="110" height="40" as="geometry" />
        </mxCell>
        <mxCell id="5nqzWEpYTUndB_2lmOFv-40" style="rounded=0;orthogonalLoop=1;jettySize=auto;html=1;exitX=0.5;exitY=1;exitDx=0;exitDy=0;entryX=0.5;entryY=0;entryDx=0;entryDy=0;endArrow=none;endFill=0;" edge="1" parent="1" source="5nqzWEpYTUndB_2lmOFv-39" target="5nqzWEpYTUndB_2lmOFv-38">
          <mxGeometry relative="1" as="geometry" />
        </mxCell>
        <mxCell id="5nqzWEpYTUndB_2lmOFv-39" value="&lt;span style=&quot;border-bottom: 1px dotted&quot;&gt;id&lt;/span&gt;" style="ellipse;whiteSpace=wrap;html=1;align=center;" vertex="1" parent="1">
          <mxGeometry x="840" y="70" width="100" height="40" as="geometry" />
        </mxCell>
        <mxCell id="5nqzWEpYTUndB_2lmOFv-42" style="rounded=0;orthogonalLoop=1;jettySize=auto;html=1;exitX=0;exitY=0.5;exitDx=0;exitDy=0;entryX=1;entryY=0;entryDx=0;entryDy=0;endArrow=none;endFill=0;" edge="1" parent="1" source="5nqzWEpYTUndB_2lmOFv-41" target="5nqzWEpYTUndB_2lmOFv-38">
          <mxGeometry relative="1" as="geometry" />
        </mxCell>
        <mxCell id="5nqzWEpYTUndB_2lmOFv-41" value="NombreUsuario" style="ellipse;whiteSpace=wrap;html=1;align=center;" vertex="1" parent="1">
          <mxGeometry x="960" y="100" width="100" height="40" as="geometry" />
        </mxCell>
        <mxCell id="5nqzWEpYTUndB_2lmOFv-43" value="contraseÃ±a" style="ellipse;whiteSpace=wrap;html=1;align=center;" vertex="1" parent="1">
          <mxGeometry x="960" y="190" width="100" height="40" as="geometry" />
        </mxCell>
        <mxCell id="5nqzWEpYTUndB_2lmOFv-46" style="rounded=0;orthogonalLoop=1;jettySize=auto;html=1;exitX=0;exitY=0.5;exitDx=0;exitDy=0;entryX=1;entryY=0.5;entryDx=0;entryDy=0;" edge="1" parent="1" source="5nqzWEpYTUndB_2lmOFv-45" target="qkB0tayrANCVQn4P_8Va-1">
          <mxGeometry relative="1" as="geometry" />
        </mxCell>
        <mxCell id="5nqzWEpYTUndB_2lmOFv-47" style="rounded=0;orthogonalLoop=1;jettySize=auto;html=1;exitX=1;exitY=0.5;exitDx=0;exitDy=0;entryX=0;entryY=0.5;entryDx=0;entryDy=0;" edge="1" parent="1" source="5nqzWEpYTUndB_2lmOFv-45" target="5nqzWEpYTUndB_2lmOFv-38">
          <mxGeometry relative="1" as="geometry" />
        </mxCell>
        <mxCell id="5nqzWEpYTUndB_2lmOFv-45" value="Usuarios-Credenciales" style="shape=rhombus;double=1;perimeter=rhombusPerimeter;whiteSpace=wrap;html=1;align=center;" vertex="1" parent="1">
          <mxGeometry x="595" y="213" width="130" height="70" as="geometry" />
        </mxCell>
      </root>
    </mxGraphModel>
  </diagram>
</mxfile>
